<svg fill="none" height="40" viewBox="0 0 40 40" width="40" xmlns="http://www.w3.org/2000/svg" xmlns:xlink="http://www.w3.org/1999/xlink"><clipPath id="a"><path d="m0 0h40v40h-40z"/></clipPath><g clip-path="url(#a)"><path d="m36.406 11.719c.648 0 1.172.524 1.172 1.172v24.765h1.25c.1539 0 .3063.0303.4485.0892s.2714.1452.3802.2541c.1089.1088.1952.238.2541.3802s.0892.2946.0892.4485-.0303.3063-.0892.4485-.1452.2714-.2541.3802c-.1088.1089-.238.1952-.3802.2541s-.2946.0892-.4485.0892h-37.656c-.15391 0-.306311-.0303-.448505-.0892-.142193-.0589-.271394-.1452-.380224-.2541-.10883-.1088-.195159-.238-.2540578-.3802-.0588985-.1422-.0892132-.2946-.0892132-.4485s.0303147-.3063.0892132-.4485c.0588988-.1422.1452278-.2714.2540578-.3802.10883-.1089.238031-.1952.380224-.2541.142194-.0589.294595-.0892.448505-.0892h1.25v-13.046c0-.647.524-1.172 1.172-1.172h4.686c.648 0 1.172.525 1.172 1.172v13.047h2.344v-8.36c0-.646.524-1.171 1.172-1.171h4.687c.648 0 1.172.525 1.172 1.172v8.36h2.344v-17.737c0-.647.524-1.172 1.172-1.172h4.687c.648 0 1.172.525 1.172 1.172v17.734h2.344v-24.764c0-.648.524-1.172 1.172-1.172zm-1.172 2.344h-2.343v23.593h2.343zm-9.375 7.03h-2.343v16.563h2.343zm-9.375 9.376h-2.343v7.187h2.343zm-9.374-4.689h-2.344v11.875h2.343v-11.874zm26.952-25.78c.9322.00105869 1.8259.371833 2.485 1.03098.6592.65915 1.0299 1.55284 1.031 2.48502-.0013.932-.3722 1.82544-1.0313 2.48437-.6592.65893-1.5527 1.02957-2.4847 1.03063-.72 0-1.389-.217-1.947-.59l-4.073 3.055c.164.5264.2021 1.0841.1111 1.6279s-.3085 1.0587-.635 1.5031c-.3264.4444-.7527.8058-1.2445 1.0553-.4917.2494-1.0352.3798-1.5866.3807-.5241.0003-1.0415-.1173-1.514-.344l-4.689 4.688c.22.459.344.973.344 1.515-.0013.9318-.3721 1.8251-1.031 2.484s-1.5522 1.0297-2.484 1.031c-.498-.0008-.9901-.1073-1.4439-.3124s-.8589-.5041-1.1886-.8773c-.3296-.3733-.5764-.8122-.7238-1.2879-.1475-.4756-.1924-.9771-.1317-1.4714l-3.45-1.724c-.65377.6328-1.52812.9864-2.438.986-.932-.0013-1.82544-.3722-2.48437-1.0313-.65893-.6592-1.02957-1.5527-1.03063-2.4847.00132-.9318.37208-1.8251 1.03098-2.484s1.55219-1.0297 2.48402-1.031c.49798.0008.99012.1073 1.44391.3124s.8589.5041 1.18857.8773c.32967.3733.57639.8122.72386 1.2879.14748.4756.19235.9771.13166 1.4714l3.45 1.725c.5141-.4981 1.1685-.8268 1.8751-.9418.7066-.1149 1.4314-.0107 2.0769.2988l4.689-4.688c-.2268-.4728-.3444-.9906-.344-1.515.0011-.932.3717-1.82555 1.0306-2.48466.659-.65912 1.5524-1.03002 2.4844-1.03134.72 0 1.39.218 1.948.59l4.073-3.054c-.164-.52644-.2021-1.08406-.1111-1.6279s.3085-1.05869.635-1.50307c.3264-.444384.7527-.805856 1.2445-1.05529.4917-.249433 1.0342-.37984998 1.5856-.38074zm-18.75 18.75c-.646 0-1.171.526-1.171 1.172s.525 1.172 1.171 1.172c.647 0 1.172-.526 1.172-1.172s-.525-1.172-1.172-1.172zm-9.374-4.688c-.647 0-1.172.526-1.172 1.172s.525 1.172 1.171 1.172c.647 0 1.172-.526 1.172-1.172s-.525-1.172-1.171-1.172zm18.75-4.687c-.647 0-1.172.526-1.172 1.172s.525 1.172 1.172 1.172c.646 0 1.171-.526 1.171-1.172s-.524-1.172-1.171-1.172zm9.375-7.031c-.647 0-1.172.526-1.172 1.172s.525 1.171 1.172 1.171c.646 0 1.171-.525 1.171-1.171s-.524-1.172-1.171-1.172z" fill="#2bd0d0"/></g></svg>