<svg fill="none" height="40" viewBox="0 0 40 40" width="40" xmlns="http://www.w3.org/2000/svg"><path d="m19.968 0c11.01 0 19.969 8.958 19.969 19.968s-8.958 19.969-19.969 19.969c-11.01 0-19.968-8.958-19.968-19.969 0-11.01 8.958-19.968 19.968-19.968zm7.805 35.579c-4.863-2.402-10.746-2.402-15.609 0 2.42 1.2222 5.0929 1.86 7.804 1.862 2.7115-.0019 5.3847-.6396 7.805-1.862zm-6.556-33.02v3.681h-2.497v-3.68c-3.458.24372-6.7639 1.51704-9.492 3.656l2.798 2.797-1.765 1.765-2.888-2.888c-2.52313 2.6261-4.15922 5.9773-4.678 9.582h4.793v2.497h-4.992c0 5.805 2.857 10.943 7.227 14.122 6.217-3.714 14.274-3.714 20.49 0 4.37-3.179 7.228-8.317 7.228-14.123h-4.992v-2.496h4.793c-.5188-3.6047-2.1549-6.9559-4.678-9.582l-2.888 2.888-1.765-1.765 2.798-2.797c-2.7279-2.13932-6.0339-3.41299-9.492-3.657zm-2.437 8.292c.332-1.034 2.045-1.034 2.377 0 .635 1.978 3.804 11.955 3.804 14.11-.0013 1.3237-.5278 2.5928-1.4639 3.5288-.9362.9359-2.2054 1.4621-3.5291 1.4632-1.3236-.0013-2.5925-.5277-3.5284-1.4636s-1.4623-2.2048-1.4636-3.5284c0-2.155 3.17-12.132 3.804-14.11zm1.188 4.567c-1.233 4.047-2.496 8.522-2.496 9.543.0011.6617.2644 1.2959.7322 1.7638.4679.4678 1.1021.7311 1.7638.7322.6618-.0008 1.2963-.264 1.7644-.7319s.7315-1.1023.7326-1.7641c0-1.02-1.263-5.496-2.497-9.543z" fill="#2bd0d0"/></svg>