<svg fill="none" height="324" viewBox="0 0 375 324" width="375" xmlns="http://www.w3.org/2000/svg" xmlns:xlink="http://www.w3.org/1999/xlink"><linearGradient id="a"><stop offset="0" stop-color="#183866"/><stop offset="1" stop-color="#1a7fc1"/></linearGradient><linearGradient id="b" gradientUnits="userSpaceOnUse" x1="156.06" x2="162.908" xlink:href="#a" y1="244.362" y2="244.362"/><linearGradient id="c"><stop offset="0"/><stop offset=".99" stop-opacity="0"/></linearGradient><linearGradient id="d" gradientUnits="userSpaceOnUse" x1="172.864" x2="176.604" xlink:href="#c" y1="245.607" y2="245.607"/><linearGradient id="e" gradientUnits="userSpaceOnUse" x1="202.585" x2="218.505" xlink:href="#c" y1="194.087" y2="201.533"/><linearGradient id="f" gradientUnits="userSpaceOnUse" x1="171.957" x2="169.771" xlink:href="#c" y1="95.8154" y2="95.2201"/><linearGradient id="g" gradientUnits="userSpaceOnUse" x1="215.763" x2="162.085" xlink:href="#c" y1="232.997" y2="215.462"/><linearGradient id="h" gradientUnits="userSpaceOnUse" x1="222.186" x2="219.716" xlink:href="#c" y1="40.0497" y2="39.2698"/><linearGradient id="i" gradientUnits="userSpaceOnUse" x1="195.388" x2="178.117" xlink:href="#c" y1="198.988" y2="203.58"/><linearGradient id="j" gradientUnits="userSpaceOnUse" x1="339.989" x2="23.4841" y1="194.748" y2="179.512"><stop offset="0"/><stop offset="1" stop-opacity="0"/></linearGradient><linearGradient id="k" gradientUnits="userSpaceOnUse" x1="161.739" x2="324.84" xlink:href="#a" y1="143.964" y2="143.964"/><linearGradient id="l" gradientUnits="userSpaceOnUse" x1="218.278" x2="220.244" xlink:href="#c" y1="166.42" y2="174.061"/><linearGradient id="m" gradientUnits="userSpaceOnUse" x1="189.66" x2="242.783" xlink:href="#c" y1="164.295" y2="181.293"/><linearGradient id="n" gradientUnits="userSpaceOnUse" x1="188.984" x2="188.593" xlink:href="#c" y1="169.393" y2="172.399"/><linearGradient id="o" gradientUnits="userSpaceOnUse" x1="107.169" x2="79.5671" xlink:href="#c" y1="209.411" y2="208.345"/><linearGradient id="p" gradientUnits="userSpaceOnUse" x1="111.596" x2="88.536" xlink:href="#c" y1="233.444" y2="232.656"/><linearGradient id="q" gradientUnits="userSpaceOnUse" x1="66.4428" x2="65.6013" xlink:href="#c" y1="250.421" y2="254.581"/><linearGradient id="r" gradientUnits="userSpaceOnUse" x1="60.5526" x2="58.6177" xlink:href="#c" y1="64.1533" y2="76.0662"/><linearGradient id="s"><stop offset="0" stop-color="#ecc4d7"/><stop offset=".42" stop-color="#efd4d1"/><stop offset="1" stop-color="#f2eac9"/></linearGradient><linearGradient id="t" gradientUnits="userSpaceOnUse" x1="167.878" x2="193.411" xlink:href="#s" y1="80.9448" y2="80.9448"/><linearGradient id="u" gradientUnits="userSpaceOnUse" x1="196.918" x2="220.574" xlink:href="#s" y1="144.825" y2="144.825"/><linearGradient id="v" gradientUnits="userSpaceOnUse" x1="230.323" x2="248.998" xlink:href="#s" y1="150.58" y2="150.58"/><linearGradient id="w" gradientUnits="userSpaceOnUse" x1="354.689" x2="266.241" y1="142.221" y2="201.043"><stop offset="0" stop-color="#362958" stop-opacity=".501"/><stop offset="1" stop-color="#34313d" stop-opacity="0"/></linearGradient><linearGradient id="x" gradientUnits="userSpaceOnUse" x1="217.622" x2="216.897" xlink:href="#c" y1="34.1923" y2="33.9239"/><mask id="y" height="324" maskUnits="userSpaceOnUse" width="375" x="0" y="0"><path d="m0 0h375v324h-375z" fill="#c4c4c4"/></mask><g mask="url(#y)"><path d="m392.671 62.4058c-13.057-13.9353-23.163-30.5705-38.768-41.9428-24.512-17.90017-59.789-19.645737-88.449-8.4004-28.661 11.2447-50.988 33.9116-65.704 59.5778-7.741 13.5039-13.822 28.2341-25.165 39.2686-9.588 9.323-22.192 15.272-34.141 21.75-19.266 10.417-37.82 23.004-50.2878 40.275-12.4667 17.271-18.0408 39.954-10.0712 59.418 5.3743 13.133 16.1994 23.583 27.289 33.044 13.051 11.124 27.078 21.54 43.266 28.168 20.266 8.246 42.764 10.019 64.826 10.858 39.112 1.482 78.287.374 117.234-3.313 31.892-3.016 64.75-8.164 91.433-24.827 37.379-23.335 56.65-66.089 60.989-108.015 1.766-16.768 1.319-34.194-5.58-49.752-16.5-37.2148-61.018-28.5107-86.872-56.1092z" fill="#eff1f7"/><path d="m140.694 130.958s-10.334-1.834-13.228 5.397c-2.895 7.231 0 32.205 0 32.205l38.555 27.556z" fill="#3f3d56"/><path d="m189.18 241.391-15.286 4.362c-2.221.629-4.551-.592-5.212-2.73-.652-2.14.614-4.387 2.832-5.023l15.266-4.367c2.219-.629 4.549.59 5.212 2.726.659 2.137-.598 4.386-2.812 5.032z" fill="#2bd0d0"/><path d="m188.432 257.746c3.781 0 6.847-3.065 6.847-6.847s-3.066-6.848-6.847-6.848c-3.782 0-6.848 3.066-6.848 6.848s3.066 6.847 6.848 6.847z" fill="#25233a"/><path d="m187.498 255.879c1.891 0 3.424-1.533 3.424-3.424s-1.533-3.424-3.424-3.424-3.424 1.533-3.424 3.424 1.533 3.424 3.424 3.424z" fill="#3f3d56"/><path d="m160.418 250.899c3.782 0 6.848-3.066 6.848-6.848s-3.066-6.848-6.848-6.848-6.848 3.066-6.848 6.848 3.066 6.848 6.848 6.848z" fill="#25233a"/><path d="m162.908 244.362c0 .908-.361 1.779-1.003 2.421s-1.513 1.003-2.421 1.003-1.779-.361-2.421-1.003-1.003-1.513-1.003-2.421.361-1.779 1.003-2.421 1.513-1.003 2.421-1.003 1.779.361 2.421 1.003 1.003 1.513 1.003 2.421z" fill="url(#b)"/><path d="m158.55 260.237c3.782 0 6.848-3.066 6.848-6.848s-3.066-6.848-6.848-6.848-6.848 3.066-6.848 6.848 3.066 6.848 6.848 6.848z" fill="#25233a"/><path d="m164.153 253.7c0 .908-.361 1.779-1.003 2.421s-1.513 1.003-2.421 1.003-1.779-.361-2.421-1.003-1.003-1.513-1.003-2.421.361-1.779 1.003-2.421 1.513-1.003 2.421-1.003 1.779.361 2.421 1.003 1.003 1.513 1.003 2.421z" fill="#3f3d56"/><g fill="#2bd0d0"><path d="m189.729 248.33-31.616-6.254c-2.225-.446-3.663-2.571-3.217-4.753.456-2.179 2.621-3.589 4.846-3.154l31.617 6.242c2.225.446 3.663 2.571 3.217 4.754-.45 2.184-2.617 3.599-4.847 3.165z"/><path d="m170.378 197.983h8.716v36.73c0 2.406-1.951 4.357-4.356 4.357-1.155 0-2.263-.46-3.08-1.277s-1.276-1.925-1.275-3.08v-36.73z"/><path d="m173.607 245.737-15.275 4.373c-2.221.631-4.553-.591-5.213-2.732-.652-2.141.614-4.389 2.831-5.026l15.275-4.361c2.219-.629 4.547.59 5.209 2.727.647 2.139-.616 4.379-2.827 5.018z"/></g><path d="m176.604 245.457-1.946.343c-.591.103-1.191.139-1.79.107l.813-.142c.538-.089 1.062-.247 1.56-.47z" fill="url(#d)"/><path d="m192.167 237.04c.002.961-.318 1.895-.909 2.653l-12.787-2.708c.324-.463.556-.983.684-1.533l7.877-2.442c.507-.153 1.041-.2 1.567-.138s1.034.232 1.492.499c.933.539 1.624 1.446 1.919 2.52.102.373.155.76.157 1.149z" fill="url(#e)"/><path d="m169.893 236.022c-.091-.32-.137-.651-.137-.983v-36.433h3.699v39.263c-.036.193-.024.391.036.579-.57-.198-1.168-.305-1.771-.318-.43-.025-.862-.025-1.293 0l.265-.062c.163-.025-.585-1.302-.799-2.046z" fill="url(#f)" opacity=".31"/><path d="m192.969 247.661c-.604.326-1.283.496-1.973.496-.278-.001-.555-.028-.828-.081l-13.949-2.743-1.162-.226c-.399.298-.849.521-1.328.657l-.691.197-14.334 4.15c-2.188.627-4.483-.587-5.134-2.716 1.243 1.124 3.131 1.229 4.497.25 1.75-1.18 8.716-2.953 12.662-3.895 1.866-.435 3.292-1.899 3.641-3.735.01-.108.026-.216.05-.322.657.693 1.865 1.47 4.049 2.131 5.379 1.612 14.111 2.679 14.111 2.679s1.576 1.507.389 3.158z" fill="url(#g)" opacity=".31"/><path d="m194.034 246.541c-.333.489-.756.911-1.245 1.245.42-.41.835-.825 1.245-1.245z" fill="url(#h)"/><path d="m170.565 235.683c.174.732.539 1.405 1.058 1.949-.13.024-.264.057-.399.094l-13.242 3.835c-2.036-.506-3.377-2.406-3.14-4.449.238-2.042 1.981-3.599 4.082-3.644.282 0 .563.028.84.082z" fill="url(#i)"/><path d="m190.922 60.6586s-.172-12.9517-10.63-11.8343c-10.458 1.1162-9.656-3.1718-14.123-2.7011-4.467.4712-9.656 4.847-8.166 10.2518 1.491 5.4047-3.942 6.6131-7.51 10.7137-3.569 4.1005.84 7.4554 6.851 11.4644 6.012 4.0091-.373 2.9714 3.191 9.3099 3.564 6.338 15.63-1.7586 15.63-1.7586z" fill="#503164"/><path d="m106.049 275.551 7.302.249v-58.359s.367-15.091 14.599-16.605c14.232-1.513 143.304-20.211 143.304-20.211s5.116-.542 8.062 9.276c2.947 9.818 5.815 48.425 5.815 48.425l39.617 5.339s1.046-68.198-13.261-71.961c-14.306-3.763-201.401 15.414-201.401 15.414s-13.8764 72.432-4.037 88.433z" fill="#2bd0d0"/><path d="m106.049 275.551 7.302.249v-58.359s.367-15.091 14.599-16.605c14.232-1.513 143.304-20.211 143.304-20.211s5.116-.542 8.062 9.276c2.947 9.818 5.815 48.425 5.815 48.425l39.617 5.339s1.046-68.198-13.261-71.961c-14.306-3.763-201.401 15.414-201.401 15.414s-13.8764 72.432-4.037 88.433z" fill="url(#j)" opacity=".197"/><path d="m68.2837 194.115s3.5758-19.769 28.7259-24.951l177.5344-20.321s17.428-.722 25.402 4.101c7.973 4.822 19.353 8.82 24.019 30.642 4.665 21.824 5.78 59.104 5.78 59.104l-4.413.685s-6.442-67.507-13.268-71.781c-6.824-4.274-191.366 21.947-191.366 21.947s-12.8 2.545-13.915 21.497c-1.114 18.952 0 60.14 0 60.14l-38.4993-15.528z" fill="#2bd0d0"/><path d="m250.949 156.8c-9.19-1.183-18.454-2.04-27.714-1.694-6.96.27-13.874 1.224-20.775 2.175l-60.868 8.406c-1.033.143-2.21.375-2.727 1.272-.991 1.713 1.339 3.402 3.226 4.054 20.239 7.007 41.861 14.104 62.694 9.108 9.524-2.284 18.371-7.027 28.032-8.675s19.577-.131 29.217-1.685c9.062-1.46 17.691-5.608 26.876-5.649 2.817 0 5.717.36 8.389-.522 2.672-.881 5.035-3.573 4.295-6.256-8.624-.298-18.305-1.872-26.764-.163-8.372 1.688-15.497-.371-23.881-.371z" fill="url(#k)" opacity=".19"/><path d="m195.902 166.471.355 1.316s10.509 6.333 10.443 6.537c-.066.205 43.592-10.109 43.592-10.109l1.015-2.961z" fill="#2bd0d0"/><path d="m195.902 166.471.355 1.316s10.509 6.333 10.443 6.537c-.066.205 43.592-10.109 43.592-10.109l1.015-2.961z" fill="url(#l)"/><path d="m196.524 166.462 38.664-8.32 16.119 3.146-43.924 10.55z" fill="#2bd0d0"/><path d="m196.524 166.462 38.664-8.32 16.119 3.146-43.924 10.55z" fill="url(#m)"/><path d="m183.969 173.384 9 .319s2.286.142 2.876-1.692c.592-1.833-3.666-5.702-4.122-5.775s-12.301 3.25-10.594 6.571z" fill="#2bd0d0"/><path d="m183.969 173.384 9 .319s2.286.142 2.876-1.692c.592-1.833-3.666-5.702-4.122-5.775s-12.301 3.25-10.594 6.571z" fill="url(#n)"/><path d="m78.8666 264.007-4.3938 13.494c-12.745 4.576-23.5813 0-23.5813 0l-3.1513-14.152s15.8963 5.329 31.1264.658z" fill="#2bd0d0"/><path d="m78.8666 264.007-4.3938 13.494c-12.745 4.576-23.5813 0-23.5813 0l-3.1513-14.152s15.8963 5.329 31.1264.658z" fill="url(#o)"/><path d="m83.8469 251.521-1.4219 10.547-3.6019 1.873c-15.3441 4.619-31.3848-.646-31.3848-.646l-2.7659-2.044-1.2898-9.73z" fill="#2bd0d0"/><path d="m83.8469 251.521-1.4219 10.547-3.6019 1.873c-15.3441 4.619-31.3848-.646-31.3848-.646l-2.7659-2.044-1.2898-9.73z" fill="url(#p)"/><path d="m63.6147 254.633c11.1739 0 20.2322-1.672 20.2322-3.735s-9.0583-3.735-20.2322-3.735-20.2321 1.672-20.2321 3.735 9.0582 3.735 20.2321 3.735z" fill="#2bd0d0"/><path d="m63.6147 254.633c11.1739 0 20.2322-1.672 20.2322-3.735s-9.0583-3.735-20.2322-3.735-20.2321 1.672-20.2321 3.735 9.0582 3.735 20.2321 3.735z" fill="url(#q)"/><path d="m54.3646 169.989c-1.9809-.944-4.1106-1.655-5.8244-3.032-3.4531-2.801-4.3284-7.625-5.4097-11.951-1.0808-4.328-3.1731-9.085-7.4355-10.326-1.5949-.459-3.4656-.277-4.6783.865-1.2781 1.203-1.5377 3.181-1.1878 4.927.3492 1.745 1.2002 3.309 1.8582 4.964 1.5361 3.846 2.0033 8.035 1.3522 12.125-.5385 3.355-1.8253 6.755-.9992 10.044 1.402 5.58 8.3855 8.852 8.5785 14.602.1319 3.88-3.0411 7.471-2.3221 11.29.5304 2.825 3.1158 5.03 3.2558 7.901.1557 3.256-2.9022 6.01-2.754 9.266.1475 3.256 3.3784 5.432 5.4876 7.993 1.7693 2.154 2.8201 4.809 3.0049 7.59.1108 1.738-.1114 3.538.452 5.184.4108 1.203 1.2326 2.226 1.87 3.31.7035 1.17 1.2333 2.436 2.0799 3.52 1.0595 1.348 2.5011 2.346 4.1364 2.863 1.6353.516 3.3884.528 5.0303.032.6537-4.326.0822-8.74.2634-13.113.3573-8.472 3.5428-17.01 1.504-25.234-.7477-3.016-2.1863-5.879-2.4416-8.973-.2259-2.764.5055-5.502 1.0154-8.228 1.052-5.63 1.0359-11.451.6038-17.143-.3405-4.517-3.4973-6.598-7.4392-8.476z" fill="#2bd0d0"/><path d="m66.8841 192.236c-.033 3.773.828 7.675-.3809 11.258-.9152 2.716-2.9272 4.939-3.9662 7.609-2.3967 6.163.828 13.073.17 19.654-.2739 2.71-1.2052 5.314-1.7929 7.976-.7301 3.37-.909 6.835-.5298 10.262-.0385.625.1497 1.242.53 1.739.3803.496.9271.839 1.5399.964 2.0287.773 4.1299 1.339 6.272 1.691-.7242-3.991.0388-8.108 2.1446-11.573 3.2832-5.373 9.6629-8.993 10.8507-15.164.803-4.179-1.0677-8.419-.9351-12.672.0956-2.831 1.0709-5.561 2.7902-7.811 1.5439-2.009 3.6349-3.563 5.0717-5.647 3.4526-5.021 2.3762-11.733 1.3497-17.738-1.0272-6.006-1.623-12.916 2.4341-17.466 1.2836-1.438 2.9557-2.518 4.1192-4.055 2.5916-3.426 1.9373-8.705-1.0769-11.767-3.0131-3.063-7.8657-3.909-11.9638-2.562-1.7283.508-3.2543 1.544-4.3639 2.963-2.0699 2.935-1.242 6.944-.3642 10.432.7657 3.03 1.3826 6.526.3356 9.58-.7826 2.273-2.7659 3.505-4.4511 5.088-2.3875 2.204-4.3069 4.866-5.644 7.828s-2.0645 6.162-2.1389 9.411z" fill="#2bd0d0"/><path d="m62.7196 225.7c-.5839 4.104-1.4268 8.242-1.5999 12.358v.414c-.0089.102-.0322.202-.0691.298-.7294 3.373-.9114 6.841-.5391 10.272.0224.556.1625 1.101.4109 1.598-.0199.173-.0448.343-.0691.516-1.6424.496-3.3961.484-5.0319-.032-1.6359-.517-3.078-1.515-4.1379-2.864-.8218-1.084-1.3777-2.35-2.0805-3.52-.658-1.088-1.4599-2.11-1.8707-3.31-.5634-1.655-.3418-3.446-.4526-5.184-.1846-2.782-1.2356-5.437-3.0056-7.592-2.1097-2.544-5.3456-4.679-5.4894-7.989s2.9109-6.011 2.7547-9.268c-.1395-2.871-2.7261-5.076-3.2559-7.901-.7202-3.82 2.4665-7.41 2.3227-11.291-.193-5.751-7.179-9.024-8.5816-14.605-.8217-3.289.4607-6.69.9992-10.045.6544-4.085.1928-8.27-1.3359-12.114-.6581-1.655-1.509-3.214-1.8589-4.965-.3492-1.749-.0903-3.723 1.1884-4.932 1.2338-1.141 3.084-1.323 4.6795-.864 4.2681 1.241 6.3523 6.016 7.438 10.343 1.0857 4.328 1.9572 9.147 5.411 11.953 1.707 1.386 3.8447 2.089 5.8269 3.033 3.9468 1.878 7.1049 3.959 7.4423 8.435.4109 5.693.4482 11.514-.6039 17.145-.5104 2.727-1.2338 5.466-1.0159 8.229.2179 2.764 1.4144 5.379 2.1956 8.059.0866.302.1725.608.2466.915 1.0365 4.257.7034 8.564.0821 12.908z" fill="#30c59b"/><path d="m60.6378 250.276c-.1881-.496-.2937-1.019-.3125-1.549-.2677-3.337-.1344-6.711.3966-9.99.0143-.096.0324-.193.0498-.289-.1065 3.95.2328 7.933-.1339 11.828z" fill="url(#r)"/><path d="m96.5421 161.263c-1.1647 1.538-2.84 2.616-4.1255 4.055-4.0632 4.546-3.4662 11.461-2.4378 17.466 1.0278 6.005 2.106 12.717-1.3521 17.739-1.4381 2.067-3.5323 3.637-5.0792 5.646-1.7219 2.249-2.699 4.98-2.7952 7.811-.132 4.253 1.7419 8.493.9375 12.672-1.1896 6.171-7.5792 9.8-10.8674 15.165-2.1009 3.467-2.8592 7.584-2.1316 11.572-2.1398-.352-4.2388-.918-6.2651-1.69-.5537-.164-1.0561-.468-1.4592-.881-.0572-.067-.1087-.139-.1538-.215-.2569-.492-.4053-1.033-.4351-1.587-.3729-3.428-.1868-6.894.5516-10.262.0205-.1.0454-.199.0703-.298.5889-2.558 1.4598-5.067 1.725-7.679.1411-1.694.1077-3.397-.0996-5.084.6263-4.34.9618-8.642-.0952-12.866-.0747-.305-.1619-.612-.249-.914.079-.264.1699-.529.2739-.789 1.0408-2.67 3.056-4.893 3.9717-7.609 1.2071-3.583.3486-7.485.3816-11.258.0542-6.518 3.0025-12.812 7.7374-17.26 1.6871-1.582 3.6736-2.814 4.4573-5.087 1.049-3.055.4146-6.551-.3361-9.581-.8828-3.488-1.7207-7.497.3654-10.432 1.0365-1.455 2.6706-2.401 4.3701-2.963 4.0882-1.348 8.9688-.5 11.9831 2.562 3.0142 3.063 3.653 8.361 1.057 11.767z" fill="#30c59b"/><path d="m170.112 95.98s-17.316 2.6769-25.326 21.774c-8.011 19.097-3.845 42.757-3.705 44.839s24.545 11.112 31.522 11.112 8.43-6.99 8.43-6.99l-12.328-5.25 37.457-4.326h6.726l-3.704 6.245s7.31.766 12.196.941 8.204-9.487 8.751-14.293c.548-4.804-21.581-46.974-24.887-49.472-3.305-2.4982-12.274-8.6015-35.132-4.58z" fill="#2bd0d0"/><path d="m190.543 60.2653s3.133 1.7618 2.851 7.461-2.048 14.2758-3.83 16.497c-1.783 2.2224-8.018 3.0927-8.018 3.0927s3.401 8.0785 5.932 10.1634c2.532 2.0848-2.543 9.7656-7.479 7.2456-4.936-2.521-10.658-8.8499-10.658-8.8499s4.116-7.6228 2.724-11.635c-1.391-4.0122-6.706-18.0932-2.724-21.9391 3.982-3.8473 12.566-9.3597 21.202-2.0357z" fill="url(#t)"/><path d="m163.116 123.28-2.698 33.651 8.241 4.323 6.7-1.169-8.36-10.274zm43.369-1.867s11.149 26.194 6.207 35.484l-3.808-.722z" fill="#fff" opacity=".25"/><path d="m176.306 165.64s-4.212 3.595-2.332 6.392c1.88 2.796 4.124 2.716 5.996 1.466 1.871-1.251 5.547-4.218 9.926-2.856 4.38 1.362 5.444 2.228 5.444 2.228s2.306-1.441 1.708-2.888c-.599-1.446-5.179-6.131-6.507-6.738-1.327-.607-6.837 1.258-6.837 1.258s-4.048-1.095-7.398 1.139z" fill="url(#u)"/><path d="m213.452 157.892s-3.975.472-4.979 3.085c-1.005 2.614-1.366 2.933-1.366 2.933s2.245.429 3.179-.787c.934-1.217 1.904-.706 1.904-.706l-.278 1.561s6.1.919 8.855-.068c2.755-.99 3.937-2.15 3.937-2.15l1.079-2.64s-2.602-1.886-4.564-2.178c-1.962-.293-7.767.95-7.767.95z" fill="url(#v)"/><path d="m234.432 185.533s13.655 10.388 12.441 24.44-2.997 34.916-2.997 34.916-5.506 2.317-9.155 0-5.859-34.021-7.667-37.049c-1.807-3.028-12.684-16.677-24.304-17.853z" fill="#25233a"/><path d="m166.021 195.529s6.501 6.16 18.091 8.095c11.591 1.934 16.994 3.548 20.536 13.449 3.542 9.902 6.94 31.212 8.052 33.594s5.841 1.166 5.841 1.166 2.674-3.047 2.674-19.991c0-23.623 1.653-28.465-4.303-34.399-5.957-5.934-11.375-7.552-11.375-7.552z" fill="#3f3d56"/><path d="m212.71 251.521 1.133 8.838h2.122s13.663.739 14.091.42c.429-.319-.658-6.999-5.834-6.81-5.177.189-5.516-1.259-5.516-1.259zm23.034-6.128 2.19 8.618 23.928-3.244s.842-5.661-6.738-5.099c-2.001.145-3.491 1.534-5.896 1.546-2.405.013-4.708-.96-5.921-2.541z" fill="#25233a"/><path d="m317.173 137.186-88.55 4.764c-2.142.113-3.97-1.537-4.085-3.689v-63.2435c.002-2.5529 2.034-4.6365 4.575-4.6907l88.187-1.8284c.561-.0113 1.118.0883 1.64.2931s.999.5108 1.402.9003c.817.789 1.288 1.8694 1.311 3.005v59.7442c-.004 2.525-1.97 4.608-4.48 4.745z" fill="#2bd0d0"/><path d="m322.153 137.186-88.555 4.765c-2.141.11-3.966-1.543-4.08-3.694v-63.2396c-.002-2.5536 2.03-4.6391 4.571-4.6907l88.2-1.8284c2.351-.0436 4.294 1.8321 4.344 4.1946v59.7481c-.003 2.526-1.97 4.609-4.48 4.745z" fill="#2bd0d0"/><path d="m322.153 137.186-88.555 4.765c-2.141.11-3.966-1.543-4.08-3.694v-63.2396c-.002-2.5536 2.03-4.6391 4.571-4.6907l88.2-1.8284c2.351-.0436 4.294 1.8321 4.344 4.1946v59.7481c-.003 2.526-1.97 4.609-4.48 4.745z" fill="url(#w)"/><path d="m295.988 161.34-22.595 2.405s-6.881-1.389-6.509-2.405c.373-1.016 7.568-1.995 7.568-1.995v-40.965c-.062-.091-1.009-1.297-3.604-2.066-.502-.149-1.014-.268-1.531-.355-.444-.065-.876-.196-1.282-.388-1.543-.797.162-2.185 2.556-2.247.376-.014.751.008 1.122.066h17.377s6.579 1.85 6.898 11.087c.318 9.238 0 36.863 0 36.863z" fill="#3a3054"/><path d="m277.453 161.427-4.157 2.318s-6.778-1.389-6.412-2.405c.368-1.016 7.468-1.995 7.468-1.995v-40.968c-.086-.095-1.125-1.182-3.551-2.066-.902-.322-1.829-.571-2.771-.744-1.52-.797.159-2.185 2.519-2.247 2.009.277 5.966 2.507 6.224 3.78.256 1.273.68 44.327.68 44.327z" fill="#51466b"/><path d="m193.412 247.163c-.549.623-.803.853-.48.341.169-.099.329-.213.48-.341z" fill="url(#x)"/></g></svg>