<svg fill="none" height="33" viewBox="0 0 121 33" width="121" xmlns="http://www.w3.org/2000/svg"><path d="m16.185 7.752c-.068-.09-.306-.26-.714-.51s-.918-.51-1.53-.782-1.281-.51-2.006-.714c-.7078-.20154-1.44-.30451-2.176-.306-1.995 0-2.992.669-2.992 2.006 0 .408.107.748.323 1.02.215.272.532.516.952.731.419.215.946.414 1.58.595l1.406.393.805.219c1.156.317 2.198.663 3.128 1.037.929.374 1.717.839 2.363 1.394.6445.5532 1.1558 1.2447 1.496 2.023.35.793.527 1.745.527 2.856 0 1.36-.255 2.51-.765 3.451-.51.94-1.185 1.7-2.023 2.278-.84.578-1.802.997-2.89 1.258-1.088.26-2.21.391-3.366.391-1.84179-.0105-3.67299-.2794-5.44-.799-.884-.26-1.74-.572-2.567-.935-.80205-.3485-1.570574-.7696-2.296-1.258l2.448-4.862c.09.113.385.329.884.646.498.317 1.116.635 1.853.952.736.317 1.558.6 2.465.85.906.25 1.824.374 2.754.374 1.972 0 2.958-.6 2.958-1.802 0-.453-.148-.827-.442-1.122-.295-.295-.703-.561-1.224-.799-.4888-.2188-.9911-.4059-1.504-.56l-1.702-.495-.976-.288c-1.111-.34-2.074-.708-2.89-1.105s-1.49-.856-2.023-1.377c-.52312-.5069-.92924-1.1219-1.19-1.802-.261-.68-.391-1.473-.391-2.38 0-1.27.238-2.391.714-3.366.45889-.95292 1.12029-1.79418 1.938-2.465.84051-.68179 1.80437-1.19547 2.839-1.513 1.076-.34 2.215-.51 3.417-.51.838 0 1.666.08 2.482.238.816.159 1.598.363 2.346.612.748.25 1.445.533 2.09.85.647.317 1.242.635 1.786.952l-2.448 4.624zm23.424 17.068h-5.44v-10.03c0-1.156-.227-2.006-.68-2.55-.454-.544-1.077-.816-1.87-.816-.318 0-.663.074-1.037.221-.3934.1588-.7603.3766-1.088.646-.3623.2943-.688.631-.97 1.003-.297.3898-.5269.8265-.68 1.292v10.234h-5.44v-24.82h5.44v9.962c.6307-1.04001 1.5294-1.89137 2.602-2.465 1.076-.578 2.26-.867 3.553-.867 1.201 0 2.17.21 2.907.629.736.42 1.303.952 1.7 1.598.396.646.663 1.371.799 2.176s.204 1.592.204 2.363zm12.34.34c-1.519 0-2.873-.25-4.063-.748-1.19-.499-2.193-1.173-3.01-2.023-.8144-.848-1.4449-1.855-1.852-2.958-.4203-1.1255-.6337-2.3176-.63-3.519 0-1.224.21-2.397.63-3.519.4074-1.1031 1.0383-2.1101 1.853-2.958.816-.85 1.819-1.53 3.009-2.04s2.544-.765 4.063-.765 2.867.255 4.046.765 2.176 1.19 2.992 2.04c.8161.8501 1.4521 1.8562 1.87 2.958.4309 1.123.6499 2.3162.646 3.519.0037 1.2014-.2097 2.3935-.63 3.519-.4071 1.103-1.0376 2.11-1.852 2.958-.816.85-1.82 1.524-3.01 2.023s-2.543.748-4.062.748zm-3.979-9.248c0 1.405.374 2.533 1.122 3.383s1.7 1.275 2.856 1.275c.5403.0058 1.0749-.1104 1.564-.34.476-.227.89-.544 1.24-.952.368-.4366.6508-.9382.834-1.479.2088-.607.3123-1.2452.306-1.887 0-1.405-.374-2.533-1.122-3.383s-1.689-1.275-2.822-1.275c-.5389-.0043-1.0722.109-1.5628.3322-.4905.2231-.9264.5507-1.2772.9598-.3672.4367-.6494.9384-.832 1.479-.2088.607-.3123 1.2452-.306 1.887zm27.776-4.284c-1.315.023-2.505.238-3.57.646s-1.836 1.02-2.312 1.836v10.71h-5.44v-17.85h4.998v3.604c.612-1.201 1.4-2.142 2.363-2.822s1.989-1.031 3.077-1.054h.544c.113 0 .227.011.34.034zm14.074 12.24c-.8364.3479-1.6937.6432-2.567.884-.963.272-1.932.408-2.907.408-.68 0-1.32-.085-1.92-.255-.5786-.1583-1.1176-.4363-1.582-.816-.453-.374-.81-.867-1.07-1.479-.262-.612-.392-1.349-.392-2.21v-9.316h-2.278v-4.114h2.278v-5.678h5.44v5.678h3.638v4.114h-3.638v7.446c0 .59.147 1.014.442 1.275.295.26.669.391 1.122.391.408 0 .827-.068 1.258-.204.43-.136.805-.283 1.122-.442zm2.277-23.868h5.44v18.462c0 1.36.578 2.04 1.734 2.04.272 0 .572-.04.901-.119.329-.08.63-.198.901-.357l.714 4.08c-.68.317-1.462.567-2.346.748s-1.711.272-2.482.272c-1.564 0-2.765-.408-3.604-1.224s-1.258-1.995-1.258-3.536zm11.456 27.506c.454.159.879.272 1.275.34.354.064.712.0981 1.071.102.658 0 1.168-.227 1.53-.68.363-.453.692-1.27.986-2.448l-6.8-17.85h5.61l4.148 13.192 3.57-13.192h5.1l-6.8 20.74c-.449 1.4354-1.342 2.6913-2.55 3.587-1.224.918-2.674 1.377-4.352 1.377-.462-.0007-.922-.0405-1.377-.119-.482-.0842-.954-.2151-1.41-.391v-4.658z" fill="#35323e"/></svg>