<svg fill="none" height="48" viewBox="0 0 48 48" width="48" xmlns="http://www.w3.org/2000/svg"><path d="m46.6078 6.0201c-.1385-.08426-.2957-.13268-.4576-.14089-.1618-.00821-.3232.02406-.4694.09389l-7.624 3.591c-1.3207.6219-2.4535 1.5818-3.2838 2.7825-.8303 1.2006-1.3285 2.5993-1.4442 4.0545l-.196 2.436-3.95 6.561v-2.801c0-.01-.006-.017-.006-.027-.0012-.0964-.0167-.1921-.046-.284l-1.838-5.514 3.753-7.504c.0808-.16395.1143-.34714.0968-.52907-.0175-.18192-.0853-.35538-.1958-.50093l-5.9-7.867003c-.0956-.11605-.2157-.209506-.3517-.2736648-.136-.0641593-.2845-.0974322-.4348-.0974322-.1504 0-.2989.0332729-.4349.0974322-.1359.0641588-.256.1576148-.3516.2736648l-5.901 7.869003c-.1096.14613-.1763.31988-.1928.50179-.0164.18191.0182.36481.0998.52821l3.753 7.503-1.838 5.514c-.0297.0918-.0455.1875-.047.284v3.951l-6.127-9.299c-.007-.01-.02-.017-.026-.026-.059-.082-.1302-.1545-.211-.215-.02-.013-.036-.03-.056-.042-.02-.013-.022-.02-.035-.027l-3.60503-2.085-1.497-2.271-2.163-3.287c-.12074-.18306-.29922-.32049-.50705-.39044-.20784-.06994-.4331-.06838-.63995.00444l-3.826997 1.343c-.14054.05-.26787.1312-.372344.2377-.104475.1064-.1833553.2353-.2306665.3767-.04731132.1415-.0618129.2918-.04240648.4397.01940648.1479.07221198.2894.15441698.4139l2.704997 4.107 1.492 2.27.492 4.137c.00257.0135.00591.0269.01.04.004.02.009.041.015.061.02228.104.06147.2037.116.295.007.01.007.023.014.033s14.62403 22.165 14.69503 22.225c.3514.9228.975 1.717 1.7881 2.2773.8132.5602 1.7774.8601 2.7649.8597.4 0 .8-.05 1.19-.145.6274-.1539 1.218-.4306 1.7378-.8143.5197-.3836.9583-.8665 1.2902-1.4207l13.08-21.698 2.065-1.307c1.0844-.69 1.9947-1.6212 2.66-2.721.8449-1.3994 1.2556-3.0181 1.18-4.651l-.383-8.42c-.0057-.16196-.0513-.31999-.1328-.46008-.0815-.14008-.1963-.25788-.3342-.34292zm-7.122 17.524-1.522 2.527-5.054-3.048 1.524-2.527zm-18.171 14.902v-14.866h5.9v5.08zm1.693-20.766h2.515l1.31 3.933h-5.136l1.31-3.933zm1.257-6.885c-.2607 0-.5108-.1036-.6951-.2879-.1844-.1844-.2879-.4344-.2879-.6951 0-.26071.1035-.51074.2879-.69509.1843-.18435.4344-.28791.6951-.28791s.5107.10356.6951.28791c.1843.18435.2879.43438.2879.69509 0 .2607-.1036.5107-.2879.6951-.1844.1843-.4344.2879-.6951.2879zm0-8.194 4.75 6.331-3.39 6.78h-.377v-3.13c.6561-.2319 1.2092-.6883 1.5613-1.2885.3522-.6003.4809-1.30568.3632-1.99158-.1176-.68591-.474-1.30815-1.006-1.75672-.5321-.44858-1.2056-.69461-1.9015-.69461-.696 0-1.3695.24603-1.9015.69461-.5321.44857-.8884 1.07081-1.0061 1.75672-.1176.6859.011 1.39128.3632 1.99158.3522.6002.9052 1.0566 1.5614 1.2885v3.13h-.376l-3.39-6.78 4.75-6.331zm-13.735 15.217-.29.19-3.62103 2.387-.333-2.787c-.01834-.1515-.07175-.2967-.156-.424l-1.081-1.642 1.641-1.082 1.081 1.642c.08424.1274.19685.2335.329.31l2.42903 1.406zm-6.12203-6.826 1.2 1.822-1.642 1.082-1.475-2.232zm5.249 9.755 2.45803-1.624 7.233 10.972v10.726l-12.15503-18.45zm17.13503 23.851c-.2002.3317-.4637.6208-.7755.8506-.3119.2299-.6659.3961-1.042.4892-.3761.093-.7668.1111-1.1499.0531-.383-.0579-.7509-.1908-1.0826-.3909s-.6208-.4637-.8507-.7755-.3961-.6659-.4891-1.042c-.0931-.3761-.1111-.7668-.0532-1.1498.058-.3831.1908-.751.391-1.0827l7.425-12.315h.017v-.027l2.712-4.499 2.527 1.526 2.53 1.52-10.16 16.843zm17.807-25.724c-.5072.8381-1.2012 1.5476-2.028 2.073l-1.747 1.107-2.852-1.717-2.852-1.717.162-2.065c.0884-1.1094.4682-2.1757 1.1011-3.0911.6328-.9154 1.4963-1.6474 2.5029-2.1219l6.294-2.962.125 2.74c-.0985-.0104-.198-.0057-.295.014l-2.382.59c-1.0866.2654-2.0771.8298-2.8592 1.6294-.7821.7997-1.3246 1.8024-1.5658 2.8946-.057.2545-.0106.5212.129.7414.1396.2203.361.3761.6155.4331.2544.057.5212.0106.7414-.129.2203-.1396.3761-.361.4331-.6155.1629-.7344.5281-1.4087 1.0541-1.9464.5261-.5378 1.1922-.9176 1.9229-1.0966l2.297-.57.103 2.262c.0575 1.2456-.2557 2.4804-.9 3.548z" fill="#2bd0d0"/></svg>